<svg id="Layer_1" data-name="Layer 1" xmlns="http://www.w3.org/2000/svg" viewBox="0 0 387.29 357.49"><defs><style>.cls-1{fill:#fff;}</style></defs><path class="cls-1" d="M104,619.77V283.62c.39-1.18,0-4.61,0-4.61V262.43c14.23-.39,51.92.13,66.16.16.19,0,.38.27.87.64v3.87c0,11.72-.27,11.45.13,23.16,20.09.31,60.66.26,60.66.26V262.74h134.7c0,13.53,0,27,0,27l60.8-.57s0-9.22,0-22.32v-4.21c1.26-.09,2.12-.21,3-.21,11.72,0,61,0,61,0s0,10.6,0,25.74c.05,99.19.05,232.38-.08,331.57M466.24,360.88H129.07v235.7H466.24Z" transform="translate(-104 -262.28)"/><path class="cls-1" d="M187.37,527.61c6.8,0,13.6,0,20.41,0,4.19,0,5.1,1,5.11,5.14q0,17.38,0,34.77c0,4.15-.95,5.09-5.14,5.1-13.61,0-27.21,0-40.82,0-3.54,0-5-1.44-4.92-5q.15-17.58,0-35.15c0-3.6,1.48-5,5-5C173.76,527.67,180.57,527.61,187.37,527.61Z" transform="translate(-104 -262.28)"/><path class="cls-1" d="M260.12,572.65c-6.67,0-13.35,0-20,0-4.61,0-5.38-.74-5.39-5.17q0-17.38,0-34.77c0-4.26.8-5.07,5.1-5.08q20.22-.06,40.44,0c4.39,0,5.28,1,5.28,5.37q0,17.19,0,34.39c0,4.35-.93,5.25-5.37,5.27C273.48,572.68,266.8,572.65,260.12,572.65Z" transform="translate(-104 -262.28)"/><path class="cls-1" d="M332.91,572.65c-6.8,0-13.6,0-20.4,0-4.34,0-5.18-.81-5.19-5,0-11.72.06-23.43-.06-35.15,0-3.65,1.58-4.92,5-4.9,13.61.06,27.21,0,40.82,0,4.15,0,5,1,5.05,5.2q0,17.38,0,34.77c0,4.11-1,5-5.2,5C346.27,572.68,339.59,572.65,332.91,572.65Z" transform="translate(-104 -262.28)"/><path class="cls-1" d="M259.88,446.49c-6.8,0-13.6-.05-20.4,0-3.28,0-4.85-1.23-4.82-4.69q.15-17.76,0-35.53c0-3.36,1.29-4.87,4.64-4.86q20.79.06,41.57,0c3.33,0,4.72,1.51,4.69,4.87-.09,11.71,0,23.43-.05,35.15,0,4.07-1,5-5.22,5C273.49,446.52,266.69,446.49,259.88,446.49Z" transform="translate(-104 -262.28)"/><path class="cls-1" d="M332.48,446.42c-6.8,0-13.61-.08-20.4,0-3.34.05-4.83-1.26-4.8-4.67q.12-17.76,0-35.52c0-3.38,1.33-4.77,4.7-4.76q20.79.11,41.56,0c3.41,0,4.68,1.51,4.65,4.84q-.14,17.56,0,35.14c0,3.53-1.35,5-4.92,5C346.33,446.33,339.4,446.42,332.48,446.42Z" transform="translate(-104 -262.28)"/><path class="cls-1" d="M405.66,401.53c6.8,0,13.6.06,20.4,0,3.35,0,4.77,1.35,4.75,4.75q-.13,17.76,0,35.51c0,3.43-1.52,4.69-4.83,4.68q-20.6-.12-41.18,0c-3.6,0-4.92-1.44-4.89-5,.11-11.71.13-23.43,0-35.14,0-3.65,1.51-4.91,5-4.85C391.81,401.61,398.73,401.53,405.66,401.53Z" transform="translate(-104 -262.28)"/><path class="cls-1" d="M187.68,464.57c6.68,0,13.35,0,20,0,4.32,0,5.18.82,5.19,5,0,11.72,0,23.43,0,35.14,0,3.38-1.38,4.78-4.73,4.76q-20.77-.09-41.56,0c-3.43,0-4.66-1.52-4.63-4.84q.13-17.56,0-35.14c0-3.5,1.28-5.05,4.89-5C173.83,464.67,180.75,464.57,187.68,464.57Z" transform="translate(-104 -262.28)"/><path class="cls-1" d="M259.71,509.46c-6.67,0-13.35-.09-20,0-3.43.06-5.09-1.1-5.05-4.8.13-11.83.1-23.67,0-35.51,0-3.44,1.5-4.66,4.82-4.64q20.58.12,41.18,0c3.59,0,4.93,1.5,4.91,5q-.15,17.56,0,35.13c0,3.35-1.31,4.85-4.69,4.81C273.82,509.4,266.76,509.45,259.71,509.46Z" transform="translate(-104 -262.28)"/><path class="cls-1" d="M333,464.57c6.8,0,13.6.07,20.4,0,3.34-.05,4.82,1.31,4.79,4.71q-.1,17.76,0,35.51c0,3.42-1.45,4.74-4.77,4.72q-20.78-.09-41.56,0c-3.14,0-4.59-1.24-4.57-4.5q.11-17.94,0-35.89c0-3.18,1.34-4.58,4.54-4.54C318.87,464.63,325.93,464.57,333,464.57Z" transform="translate(-104 -262.28)"/><path class="cls-1" d="M405.05,464.57c6.93,0,13.86.09,20.78,0,3.53-.07,5,1.34,5,4.92q-.15,17.57,0,35.13c0,3.62-1.51,4.92-5,4.9q-20.58-.12-41.18,0c-3.34,0-4.77-1.29-4.74-4.72q.17-17.75,0-35.51c0-3.4,1.37-4.78,4.74-4.72C391.45,464.65,398.25,464.57,405.05,464.57Z" transform="translate(-104 -262.28)"/></svg>