<svg id="Group_17" data-name="Group 17" xmlns="http://www.w3.org/2000/svg" width="81" height="81" viewBox="0 0 81 81">
  <path id="Icon_awesome-arrow-left" data-name="Icon awesome-arrow-left" d="M24.372,41.21l-2.1,2.1a2.262,2.262,0,0,1-3.208,0L.664,24.922a2.262,2.262,0,0,1,0-3.208l18.4-18.4a2.262,2.262,0,0,1,3.208,0l2.1,2.1a2.274,2.274,0,0,1-.038,3.246L12.93,19.527h27.2A2.266,2.266,0,0,1,42.4,21.8v3.029A2.266,2.266,0,0,1,40.131,27.1H12.93l11.4,10.865A2.258,2.258,0,0,1,24.372,41.21Z" transform="translate(19.301 17.188)" fill="#ff8302"/>
  <g id="Ellipse_1" data-name="Ellipse 1" fill="none" stroke="#ff8302" stroke-width="3">
    <circle cx="40.5" cy="40.5" r="40.5" stroke="none"/>
    <circle cx="40.5" cy="40.5" r="39" fill="none"/>
  </g>
</svg>
