<svg xmlns="http://www.w3.org/2000/svg" width="27.562" height="21.106" viewBox="0 0 27.562 21.106">
  <path id="Icon_ionic-ios-checkmark" data-name="Icon ionic-ios-checkmark" d="M37.851,14.677,35.6,12.36a.484.484,0,0,0-.358-.154h0a.465.465,0,0,0-.358.154L19.266,28.09l-5.683-5.683a.495.495,0,0,0-.717,0l-2.278,2.278a.51.51,0,0,0,0,.73l7.168,7.168a2.267,2.267,0,0,0,1.5.73,2.375,2.375,0,0,0,1.485-.7h.013l17.113-17.2A.547.547,0,0,0,37.851,14.677Z" transform="translate(-10.434 -12.206)" fill="#ff8302"/>
</svg>
